<svg width="14" height="14" viewBox="0 0 14 14" fill="none" xmlns="http://www.w3.org/2000/svg">
<path d="M13.6673 13.667H12.0007V11.3753L11.709 11.7087C11.0701 12.4309 10.3409 12.9378 9.52148 13.2295C8.70204 13.5212 7.87565 13.667 7.04232 13.667C5.50065 13.667 4.12912 13.2052 2.92773 12.2816C1.72635 11.358 0.931207 10.1531 0.542318 8.66699H2.29232C2.65343 9.66699 3.26801 10.4725 4.13607 11.0837C5.00412 11.6948 5.97287 12.0003 7.04232 12.0003C7.66732 12.0003 8.27496 11.8823 8.86523 11.6462C9.45551 11.41 10.0007 11.042 10.5007 10.542L10.709 10.3337H8.66732V8.66699H13.6673V13.667ZM13.459 5.33366H11.709C11.3479 4.33366 10.7333 3.5281 9.86523 2.91699C8.99718 2.30588 8.02843 2.00033 6.95898 2.00033C6.33398 2.00033 5.72635 2.11838 5.13607 2.35449C4.54579 2.5906 4.00065 2.95866 3.50065 3.45866L3.29232 3.66699H5.33398V5.33366H0.333984L0.333984 0.333659H2.00065V2.62533L2.29232 2.29199C2.97287 1.61144 3.71246 1.11491 4.51107 0.802409C5.30968 0.489909 6.12565 0.333659 6.95898 0.333659C8.50065 0.333659 9.87218 0.795465 11.0736 1.71908C12.275 2.64269 13.0701 3.84755 13.459 5.33366Z" fill="#644F64"/>
</svg>
